<svg width="20" height="20" viewBox="0 0 20 20" fill="none" xmlns="http://www.w3.org/2000/svg">
  <path d="M19.805 10.23c0-.68-.055-1.363-.172-2.03H10.2v3.834h5.402c-.1.52-.384.96-.824 1.254v2.43h3.332c1.95-1.796 3.075-4.438 3.075-7.488z" fill="#4285F4"/>
  <path d="M10.2 20c2.697 0 4.972-.885 6.627-2.414l-3.332-2.43c-.885.59-2.02.955-3.295.955-2.533 0-4.678-1.71-5.442-4.005H1.47v2.51C3.065 17.868 6.418 20 10.2 20z" fill="#34A853"/>
  <path d="M4.758 11.105c-.2-.59-.314-1.22-.314-1.855s.114-1.265.314-1.855V4.935H1.47C.535 6.67 0 8.8 0 11s.535 4.33 1.47 6.065l3.288-2.96z" fill="#FBBC05"/>
  <path d="M10.2 3.977c1.468 0 2.786.505 3.823 1.496L17.254.49C15.172-1.49 12.897-2.5 10.2-2.5 6.418-2.5 3.065-.368 1.47 2.435L4.758 5.395c.764-2.295 2.909-4.005 5.442-4.005z" fill="#EA4335"/>
</svg> 